<svg width="85" height="33" viewBox="0 0 85 33" fill="none" xmlns="http://www.w3.org/2000/svg">
<g clip-path="url(#clip0)">
<path d="M0.832128 22.2463C0.673948 22.7196 -0.169819 22.6471 0.0305974 22.0458L7.55312 0.269954C7.60893 0.108393 7.76106 0 7.93199 0H10.5593C10.7342 0 10.8871 0.107822 10.9398 0.274573C13.3783 7.99257 17.5297 22.4008 18.6388 25.2525L13.4585 23.8496C12.9247 22.1143 9.22556 11.3687 7.22316 5.18632C7.1034 4.81656 6.57896 4.81444 6.45727 5.18357L0.832128 22.2463Z" fill="white" stroke="white" stroke-width="0.400833" stroke-linecap="round" stroke-linejoin="round"/>
<rect x="3.20703" y="13.2275" width="8.01667" height="0.400834" rx="0.200417" fill="white"/>
<path d="M1.99023 13.6284L3.56068 15.6326H6.76867V13.6284H6.60424H1.99023Z" fill="#0F131B"/>
<path d="M10.9082 13.6284L9.33776 15.6326H6.12977V13.6284H6.2942H10.9082Z" fill="#0F131B"/>
<path d="M12.9451 19.7496C12.887 16.4234 13.7538 13.7177 15.5453 11.6325C17.3163 9.54777 19.8547 8.47653 23.1604 8.41882C24.9467 8.38764 26.545 8.76025 27.9552 9.53664C28.2458 9.71642 28.5041 9.80433 28.73 9.80039C29.0585 9.79465 29.2588 9.50362 29.3309 8.92728C29.3691 8.7623 29.46 8.67856 29.6038 8.67605C29.768 8.67318 29.8512 8.73335 29.8534 8.85654C29.8584 9.14399 29.8549 9.53429 29.843 10.0274L29.8736 11.7829L29.9054 13.6001C29.9341 14.0719 29.9516 14.4824 29.9577 14.8315C29.9609 15.0163 29.8804 15.1101 29.7161 15.113C29.5929 15.1151 29.5088 15.0036 29.4638 14.7785C29.1218 12.8333 28.5117 11.4165 27.6336 10.5281C26.5253 9.39729 25.0369 8.84819 23.1685 8.8808C22.0597 8.90016 21.1512 9.21382 20.443 9.82181C19.0078 11.1408 18.3373 14.5003 18.4315 19.9003C18.4935 23.4524 18.8879 26.0437 19.6147 27.6741C20.362 29.3041 21.7109 30.1021 23.6615 30.0681C26.9878 30.01 28.8879 28.2619 29.3619 24.8237C29.4174 24.4735 29.4954 24.236 29.5959 24.111C29.717 23.9856 29.9007 23.9208 30.1471 23.9165C30.5782 23.909 30.7972 24.1003 30.804 24.4904C30.8112 24.901 30.6973 25.437 30.4624 26.0984C29.9731 27.483 29.0986 28.5663 27.8388 29.3482C26.5791 30.1301 25.0047 30.5376 23.1158 30.5705C19.9127 30.6264 17.4325 29.7352 15.6752 27.8969C13.9175 26.038 13.0074 23.3223 12.9451 19.7496Z" fill="white"/>
<path d="M11.4683 23.9489C10.547 10.6032 17.6551 9.13184 21.3222 8.94849C12.5212 10.0486 12.726 22.2164 13.4285 24.0499C13.0276 24.0499 11.6817 23.9489 11.4683 23.9489Z" fill="#0F131B"/>
<path d="M40.4767 23.91C40.0005 25.0355 39.1059 25.5983 37.7927 25.5983C36.6383 25.5983 35.7797 25.3385 35.217 24.8191C34.6542 24.2851 34.3728 23.5853 34.3728 22.7195C34.3728 21.6372 34.7624 20.9013 35.5416 20.5117C36.292 20.1077 37.937 19.9056 40.4767 19.9056V17.4598C40.4767 16.695 40.419 16.1394 40.3035 15.7931C40.0727 15.2592 39.5748 14.9922 38.81 14.9922C38.1463 14.9922 37.6484 15.1365 37.3165 15.4251C36.9558 15.7282 36.7754 16.4352 36.7754 17.5463C36.7754 18.1524 36.4724 18.4554 35.8663 18.4554C35.3035 18.4554 35.0222 18.1596 35.0222 17.568C35.0222 16.7022 35.3829 16.0095 36.1044 15.4901C36.8259 14.9562 37.8793 14.6892 39.2646 14.6892C41.2559 14.6892 42.4969 15.1942 42.9875 16.2043C43.2184 16.6517 43.3338 17.2938 43.3338 18.1308C43.3338 19.0398 43.3266 20.0644 43.3122 21.2043C43.2978 22.3299 43.2906 23.2245 43.2906 23.8883C43.2906 24.3068 43.3338 24.6026 43.4204 24.7758C43.5214 24.9345 43.6874 25.0139 43.9183 25.0139C44.1491 25.0139 44.3656 24.9345 44.5676 24.7758C44.6975 24.6459 44.7913 24.581 44.849 24.581C44.95 24.581 45.0005 24.6387 45.0005 24.7541C45.0005 24.8551 44.9428 24.9417 44.8273 25.0139C44.3367 25.3602 43.6874 25.5333 42.8793 25.5333C42.0856 25.5333 41.5084 25.4107 41.1477 25.1654C40.8014 24.9056 40.5777 24.4872 40.4767 23.91ZM40.4983 21.7238V20.2087H40.4118C40.3396 20.2087 40.253 20.2087 40.152 20.2087C40.051 20.1942 39.9644 20.187 39.8923 20.187C38.911 20.187 38.2545 20.288 37.9226 20.4901C37.3887 20.7931 37.1217 21.5362 37.1217 22.7195C37.1217 24.2924 37.5618 25.0788 38.4421 25.0788C39.2357 25.0788 39.8201 24.6531 40.1953 23.8017C40.3973 23.3111 40.4983 22.6185 40.4983 21.7238ZM49.8131 19.1048V23.6286C49.8131 24.1914 49.8492 24.5593 49.9214 24.7325C50.0368 24.9345 50.4481 25.0355 51.1551 25.0355C51.2273 25.0355 51.2634 25.086 51.2634 25.187C51.2634 25.2736 51.2273 25.3169 51.1551 25.3169H49.8997C49.3947 25.3025 48.8824 25.2952 48.3629 25.2952C47.9012 25.2952 47.425 25.3025 46.9344 25.3169H45.5924C45.5202 25.3169 45.4841 25.2736 45.4841 25.187C45.4841 25.086 45.5202 25.0355 45.5924 25.0355C46.0397 25.0355 46.3427 25.0211 46.5015 24.9922C46.6602 24.9489 46.7684 24.8623 46.8261 24.7325C46.9127 24.5593 46.956 24.1914 46.956 23.6286V16.8537C46.956 16.0023 46.8911 15.5117 46.7612 15.3818C46.6602 15.2808 46.285 15.2303 45.6357 15.2303C45.5635 15.2303 45.5274 15.1798 45.5274 15.0788C45.5274 15.0067 45.5563 14.9706 45.614 14.9706C47.3745 14.9706 48.7381 14.9273 49.7049 14.8407C49.8059 14.8407 49.8564 14.9056 49.8564 15.0355C49.8564 15.0644 49.8492 15.1726 49.8348 15.3602C49.8348 15.5334 49.8276 15.8003 49.8131 16.1611C49.7987 16.5074 49.7843 16.8321 49.7699 17.1351C49.9863 16.3847 50.3831 15.7931 50.9603 15.3602C51.5375 14.9129 52.2302 14.6892 53.0382 14.6892C54.4235 14.6892 55.3687 15.1365 55.8737 16.0312C56.1912 16.5651 56.3499 17.4237 56.3499 18.6069V23.6286C56.3499 24.1914 56.386 24.5593 56.4582 24.7325C56.5736 24.9345 57.0065 25.0355 57.7569 25.0355C57.829 25.0355 57.8651 25.086 57.8651 25.187C57.8651 25.2736 57.829 25.3169 57.7569 25.3169H56.5664C56.0758 25.3025 55.5635 25.2952 55.0296 25.2952C54.5823 25.2952 54.1061 25.3025 53.601 25.3169H52.2157C52.1436 25.3169 52.1075 25.2736 52.1075 25.187C52.1075 25.086 52.1436 25.0355 52.2157 25.0355C52.8651 25.0355 53.2475 24.9345 53.3629 24.7325C53.4495 24.5449 53.4928 24.1769 53.4928 23.6286V16.9836C53.4928 16.3054 53.4423 15.8725 53.3413 15.6849C53.1825 15.353 52.8507 15.187 52.3456 15.187C51.5808 15.187 50.9531 15.5622 50.4625 16.3126C50.0296 17.0052 49.8131 17.9359 49.8131 19.1048ZM59.8676 21.6805V15.3169H58.4174C58.3597 15.3169 58.3308 15.2664 58.3308 15.1654C58.3308 15.0788 58.3741 15.0355 58.4607 15.0355C59.4275 14.9778 60.149 14.8046 60.6252 14.516C61.0148 14.2563 61.3034 13.9966 61.491 13.7368C61.7074 13.3905 61.9311 12.8999 62.162 12.265C62.1908 12.1639 62.2485 12.099 62.3351 12.0701C62.4217 12.0269 62.5011 12.0124 62.5732 12.0269C62.6454 12.0413 62.6887 12.0629 62.7031 12.0918C62.7175 12.1062 62.7247 12.1712 62.7247 12.2866V14.9706H64.7594C64.8459 14.9706 64.8892 15.0283 64.8892 15.1437C64.8892 15.2592 64.8459 15.3169 64.7594 15.3169H62.7247V22.6113C62.7247 23.4915 62.7608 24.0903 62.833 24.4078C62.9195 24.8551 63.2081 25.0788 63.6988 25.0788C63.9874 25.0788 64.2471 25.0066 64.478 24.8623C64.6511 24.7758 64.8387 24.6026 65.0407 24.3429C65.084 24.2707 65.1345 24.2346 65.1923 24.2346C65.2933 24.2346 65.3438 24.2851 65.3438 24.3862C65.3438 24.5016 65.2644 24.6243 65.1057 24.7541C64.5285 25.3025 63.7637 25.5766 62.8113 25.5766C61.8301 25.5766 61.1158 25.3963 60.6685 25.0355C60.2211 24.6748 59.9686 24.1192 59.9109 23.3688C59.882 22.9648 59.8676 22.402 59.8676 21.6805ZM70.125 11.2476C70.125 11.6805 69.9879 12.0341 69.7137 12.3082C69.454 12.5824 69.1004 12.7195 68.6531 12.7195C68.2202 12.7195 67.8594 12.5824 67.5708 12.3082C67.2967 12.0341 67.1596 11.6805 67.1596 11.2476C67.1596 10.8147 67.3039 10.454 67.5925 10.1654C67.8811 9.86236 68.2346 9.71084 68.6531 9.71084C69.086 9.71084 69.4395 9.85514 69.7137 10.1437C69.9879 10.4323 70.125 10.8003 70.125 11.2476ZM70.1899 18.4338V23.6286C70.1899 24.1914 70.226 24.5593 70.2981 24.7325C70.4136 24.9345 70.8392 25.0355 71.5752 25.0355C71.6473 25.0355 71.6834 25.086 71.6834 25.187C71.6834 25.2736 71.6473 25.3169 71.5752 25.3169H70.2981C69.7931 25.3025 69.2736 25.2952 68.7397 25.2952C68.2779 25.2952 67.8017 25.3025 67.3111 25.3169H65.9691C65.897 25.3169 65.8609 25.2736 65.8609 25.187C65.8609 25.086 65.897 25.0355 65.9691 25.0355C66.4164 25.0355 66.7195 25.0211 66.8782 24.9922C67.0369 24.9489 67.1452 24.8623 67.2029 24.7325C67.2895 24.5449 67.3327 24.1769 67.3327 23.6286V16.8321C67.3327 15.9951 67.2678 15.5117 67.1379 15.3818C67.0369 15.2808 66.6618 15.2303 66.0124 15.2303C65.9691 15.2303 65.933 15.2087 65.9042 15.1654C65.8897 15.1221 65.8897 15.0788 65.9042 15.0355C65.933 14.9922 65.9619 14.9706 65.9908 14.9706C66.2649 14.9706 66.5463 14.9706 66.8349 14.9706C67.1379 14.9562 67.4193 14.9489 67.6791 14.9489C67.9388 14.9489 68.1985 14.9489 68.4583 14.9489C68.718 14.9345 68.9489 14.9201 69.1509 14.9056C69.3529 14.8912 69.5261 14.884 69.6704 14.884C69.8291 14.884 69.9518 14.884 70.0384 14.884L70.1466 14.8624C70.2332 14.8624 70.2765 14.9201 70.2765 15.0355V15.1005C70.2765 15.1293 70.2693 15.187 70.2548 15.2736C70.2548 15.3458 70.2548 15.4396 70.2548 15.555C70.2548 15.656 70.2476 15.7787 70.2332 15.923C70.2332 16.0673 70.226 16.2188 70.2115 16.3775C70.2115 16.5218 70.2115 16.6805 70.2115 16.8537C70.2115 17.0269 70.2043 17.2 70.1899 17.3732C70.1899 17.5463 70.1899 17.7267 70.1899 17.9143C70.1899 18.0875 70.1899 18.2606 70.1899 18.4338ZM76.7637 19.1048V23.6286C76.7637 24.1914 76.7998 24.5593 76.8719 24.7325C76.9874 24.9345 77.3986 25.0355 78.1057 25.0355C78.1779 25.0355 78.2139 25.086 78.2139 25.187C78.2139 25.2736 78.1779 25.3169 78.1057 25.3169H76.8503C76.3452 25.3025 75.833 25.2952 75.3135 25.2952C74.8517 25.2952 74.3755 25.3025 73.8849 25.3169H72.5429C72.4708 25.3169 72.4347 25.2736 72.4347 25.187C72.4347 25.086 72.4708 25.0355 72.5429 25.0355C72.9903 25.0355 73.2933 25.0211 73.452 24.9922C73.6108 24.9489 73.719 24.8623 73.7767 24.7325C73.8633 24.5593 73.9066 24.1914 73.9066 23.6286V16.8537C73.9066 16.0023 73.8416 15.5117 73.7118 15.3818C73.6108 15.2808 73.2356 15.2303 72.5862 15.2303C72.5141 15.2303 72.478 15.1798 72.478 15.0788C72.478 15.0067 72.5069 14.9706 72.5646 14.9706C74.325 14.9706 75.6887 14.9273 76.6555 14.8407C76.7565 14.8407 76.807 14.9056 76.807 15.0355C76.807 15.0644 76.7998 15.1726 76.7854 15.3602C76.7854 15.5334 76.7781 15.8003 76.7637 16.1611C76.7493 16.5074 76.7349 16.8321 76.7204 17.1351C76.9369 16.3847 77.3337 15.7931 77.9109 15.3602C78.4881 14.9129 79.1807 14.6892 79.9888 14.6892C81.3741 14.6892 82.3193 15.1365 82.8243 16.0312C83.1418 16.5651 83.3005 17.4237 83.3005 18.6069V23.6286C83.3005 24.1914 83.3366 24.5593 83.4087 24.7325C83.5242 24.9345 83.9571 25.0355 84.7074 25.0355C84.7796 25.0355 84.8157 25.086 84.8157 25.187C84.8157 25.2736 84.7796 25.3169 84.7074 25.3169H83.517C83.0263 25.3025 82.5141 25.2952 81.9802 25.2952C81.5328 25.2952 81.0566 25.3025 80.5516 25.3169H79.1663C79.0942 25.3169 79.0581 25.2736 79.0581 25.187C79.0581 25.086 79.0942 25.0355 79.1663 25.0355C79.8157 25.0355 80.1981 24.9345 80.3135 24.7325C80.4001 24.5449 80.4434 24.1769 80.4434 23.6286V16.9836C80.4434 16.3054 80.3929 15.8725 80.2919 15.6849C80.1331 15.353 79.8012 15.187 79.2962 15.187C78.5314 15.187 77.9037 15.5622 77.4131 16.3126C76.9802 17.0052 76.7637 17.9359 76.7637 19.1048Z" fill="white"/>
</g>
<defs>
<clipPath id="clip0">
<rect width="85" height="33" fill="white"/>
</clipPath>
</defs>
</svg>
